<svg width="24" height="24" viewBox="0 0 24 24" fill="none" xmlns="http://www.w3.org/2000/svg">
<path d="M3.48861 2.51717C3.75093 2.48138 4.26435 2.51183 4.54938 2.51701L5.97416 2.53656L10.2776 2.60387L16.3142 2.71331L18.1385 2.74877C18.4983 2.75399 18.8816 2.75338 19.2378 2.77275C19.4696 2.78535 19.7547 2.85084 19.9279 3.00844C20.1512 3.21166 20.3605 3.46082 20.5705 3.68155C20.6748 3.80871 20.8459 3.93876 20.9347 4.07406C21.2383 4.53712 20.3961 4.44614 20.1941 4.44678L19.194 4.45431L10.4734 4.54785C9.77996 4.5527 9.07217 4.57595 8.37938 4.56552C8.5705 4.66583 8.85585 4.9117 9.01544 5.06683C9.81561 5.84778 10.5093 6.87405 10.9862 7.88336C11.593 9.16773 12.2456 11.3176 11.769 12.6978C11.8115 12.632 11.849 12.5578 11.888 12.4889C12.5019 11.4093 13.3023 10.4073 14.3265 9.69162C14.6233 9.48436 14.9369 9.31634 15.2687 9.17641C16.3431 8.72336 17.734 8.70295 18.467 9.75426C18.9832 10.4947 18.5576 10.9038 18.0654 11.46C17.4473 12.1583 16.8447 12.9283 16.666 13.8656C16.5378 14.5174 16.7019 15.3263 17.4718 15.4534C17.9689 15.5336 18.4762 15.3296 18.862 15.0248C19.0842 14.8492 19.4077 14.3945 19.6612 14.8163C19.7439 15.2734 19.2861 15.9609 18.9734 16.2678C18.5151 16.7178 17.8953 16.9647 17.2532 16.9528C15.7135 16.9246 14.9458 15.4866 14.9926 14.0926C15.0297 12.9823 15.4758 11.7235 16.2465 10.9038C16.2864 10.8614 16.2969 10.8624 16.2955 10.8081C16.2193 10.6577 15.9797 10.7093 15.8416 10.7432C15.3545 10.8629 14.8816 11.1567 14.5077 11.4868C13.4758 12.3977 12.7557 13.6206 12.1903 14.8613C11.6531 16.0657 11.2514 17.1886 10.5246 18.3148C9.61195 19.7292 8.31679 21.0157 6.62631 21.4092C6.3343 21.4606 5.69141 21.5851 5.43373 21.4087C5.1335 21.2032 5.60426 20.9101 5.76007 20.8185C6.7555 20.2337 7.61602 19.45 8.2962 18.5167C9.81198 16.437 10.2864 13.7444 9.91103 11.228C9.79346 10.4451 9.47906 9.31296 9.12699 8.60332C8.39072 7.11929 7.18937 5.84092 5.67737 5.13677C5.45186 5.01598 5.214 4.94989 4.98027 4.85338C4.55739 4.67874 3.97761 4.7166 3.72097 4.28269C3.58343 4.05014 3.47513 3.81247 3.34466 3.57678C3.26425 3.40717 3.13633 3.25867 3.06053 3.08764C2.87497 2.66899 3.14398 2.55177 3.48861 2.51717Z" fill="black"/>
<path d="M4.27112 7.30244C4.42261 7.3068 4.58525 7.32329 4.72892 7.36947C7.81328 8.36102 8.97937 12.0722 8.14359 14.9717C7.68614 16.5587 6.78115 18.0214 5.33678 18.8377C5.18914 18.9171 4.65108 19.1952 4.49392 19.1201C4.5118 19.0804 4.62977 18.9657 4.67075 18.9261C8.07483 15.6374 8.28219 10.2601 4.27112 7.30244Z" fill="black"/>
<path d="M13.6774 13.909L13.7104 13.9178C13.7655 14.0206 13.8073 14.53 13.8205 14.6651C13.9695 16.1425 13.6537 17.6295 12.9172 18.9187C12.289 20.0111 11.2958 21.1207 10.0427 21.4598L9.83677 21.4866C10.7449 20.6556 11.422 19.803 11.9694 18.6883C12.3856 17.8451 12.7045 16.9573 12.9201 16.0421C13.0581 15.4484 13.168 14.2826 13.6774 13.909Z" fill="black"/>
<path d="M3.77149 10.2307C4.2259 10.2598 4.78247 10.8028 5.037 11.1465C5.64477 11.9801 5.90053 13.0194 5.74908 14.04C5.59736 15.0209 5.11706 15.9791 4.30377 16.5723C4.13228 16.695 3.98128 16.7559 3.78115 16.8118C3.9481 16.5895 4.13352 16.3931 4.28446 16.1555C5.48443 14.2673 5.28802 11.861 3.77149 10.2307Z" fill="black"/>
<path d="M14.9134 16.7597C14.9165 16.762 15.1519 17.0227 15.1666 17.0388C15.2715 17.1538 15.5776 17.3913 15.6346 17.5236C15.7536 17.8004 15.6454 18.2885 15.5543 18.5534C15.1702 19.6704 14.4054 20.491 13.3662 21.0141C13.1486 21.1213 12.9743 21.1647 12.7374 21.2017C12.7722 21.1719 12.8063 21.1417 12.8401 21.1108C14.0392 20.0158 14.836 18.3874 14.9134 16.7597Z" fill="black"/>
<path d="M11.3178 5.67164C11.9404 5.73107 12.5916 6.31979 12.9605 6.78891C13.349 7.28654 13.6215 7.86469 13.7581 8.48117C13.8294 8.80502 13.8912 9.14969 13.5868 9.37266C13.2663 9.60617 13.021 9.78844 12.9258 9.2265C12.718 7.9982 12.144 6.61149 11.3178 5.67164Z" fill="black"/>
<path d="M13.5275 5.73419C14.534 5.86892 15.5986 6.9634 15.836 7.93164C15.8955 8.17461 15.9309 8.37144 15.7212 8.54989C15.5684 8.61628 15.3313 8.71648 15.1647 8.72167C15 8.73094 14.9505 8.60841 14.9273 8.46529C14.7593 7.42898 14.2625 6.49342 13.5275 5.73419Z" fill="black"/>
</svg>
